# xmcd CD database file
#
# Track frame offsets:
#	150
#	30949
#	46631
#	59218
#	75053
#	90537
#	103154
#	131089
#	148461
#	160206
#	173370
#	185787
#	197604
#	215957
#	231924
#	246431
#	263647
#	277890
#	291656
#	304595
#	318642
#	330347
#
# Disc length: 4610 seconds
#
# Revision: 1
# Processed by: cddbd v1.5.2PL0 Copyright (c) Steve Scherf et al.
# Submitted via: CDex 1.70beta2
#
DISCID=44120016
DTITLE=Wardell Gray - D2 - The Wardell Gray Story - The Chase - Proper
DYEAR=1947
DGENRE=Swing
TTITLE0=The Chase (Dexter Gordon and Wardell Gray)
TTITLE1=The Creep (Sonny Criss All Stars)
TTITLE2=Out of Nowhere (Sonny Criss All Stars)
TTITLE3=Blue 'n' Boogie (Sonny Criss All Stars)
TTITLE4=Semi-Quiet (Sonny Criss All Stars)
TTITLE5=Blue Lou (Sonny Criss All Stars)
TTITLE6=How High the Moon (International All Stars)
TTITLE7=C Jam Blues (International All Stars)
TTITLE8=Light Gray (with Al Haig)
TTITLE9=Stoned (with Al Haig)
TTITLE10=Matter and Mind (with Al Haig)
TTITLE11=The Toupe (with Al Haig)
TTITLE12=Cookin' on Up (with Teddy Wilson) (Benny Goodman Septet) 
TTITLE13=Swedish Pastry (with Teddy Wilson) (Benny Goodman Septet) 
TTITLE14=Mary's Idea (with Mary Lou Williams) (Benny Goodman Sextet)
TTITLE15=Bye Bye Blues Bop (with Mary Lou Williams) (Benny Goodman Sextet)
TTITLE16=Stealin' Apples (Benny Goodman Septet)
TTITLE17=Jahbero (with Kenny Clarke) (The Tadd Dameron Sextet)
TTITLE18=Ladybird (with Kenny Clarke) (The Tadd Dameron Sextet)
TTITLE19=Symphonette (with Kenny Clarke) (The Tadd Dameron Sextet)
TTITLE20=Shawn (with Al Haig) (Wardell Gray Quintet)
TTITLE21=The Hucklebuck (Benny Goodman and His Orchestra)
EXTD=YEAR: 1947
EXTT0=
EXTT1=
EXTT2=
EXTT3=
EXTT4=
EXTT5=
EXTT6=
EXTT7=
EXTT8=
EXTT9=
EXTT10=
EXTT11=
EXTT12=
EXTT13=
EXTT14=
EXTT15=
EXTT16=
EXTT17=
EXTT18=
EXTT19=
EXTT20=
EXTT21=
PLAYORDER=
